<mxfile host="app.diagrams.net" modified="2023-10-30T22:12:19.931Z" agent="Mozilla/5.0 (Macintosh; Intel Mac OS X 10_15_7) AppleWebKit/537.36 (KHTML, like Gecko) Chrome/118.0.0.0 Safari/537.36" etag="BuAyVWQDKXSJYlRuzYIe" version="22.0.8" type="device">
  <diagram name="Side-1" id="2YQhx3_S_LwEAAOQCPry">
    <mxGraphModel dx="2258" dy="1436" grid="1" gridSize="10" guides="1" tooltips="1" connect="1" arrows="1" fold="1" page="1" pageScale="1" pageWidth="3300" pageHeight="2339" math="0" shadow="0">
      <root>
        <mxCell id="0" />
        <mxCell id="1" parent="0" />
        <mxCell id="_Kq1sb4y0ILhw0qYM4r1-136" value="PC" style="rounded=0;whiteSpace=wrap;html=1;rotation=-90;" vertex="1" parent="1">
          <mxGeometry x="385" y="1172.5" width="120" height="60" as="geometry" />
        </mxCell>
        <mxCell id="_Kq1sb4y0ILhw0qYM4r1-137" value="Program Memory" style="rounded=0;whiteSpace=wrap;html=1;rotation=90;horizontal=0;" vertex="1" parent="1">
          <mxGeometry x="580" y="1170" width="155" height="62.5" as="geometry" />
        </mxCell>
        <mxCell id="_Kq1sb4y0ILhw0qYM4r1-138" value="Control Unit&lt;br&gt;" style="rounded=0;whiteSpace=wrap;html=1;rotation=90;horizontal=0;" vertex="1" parent="1">
          <mxGeometry x="850" y="1168.1299999999999" width="190.35" height="61.87" as="geometry" />
        </mxCell>
        <mxCell id="_Kq1sb4y0ILhw0qYM4r1-139" value="&lt;font style=&quot;font-size: 9px;&quot;&gt;Register File&lt;/font&gt;" style="rounded=0;whiteSpace=wrap;rotation=90;html=1;horizontal=0;verticalAlign=bottom;align=center;glass=0;shadow=0;" vertex="1" parent="1">
          <mxGeometry x="819.0699999999999" y="1486.12" width="252.23" height="60" as="geometry" />
        </mxCell>
        <mxCell id="_Kq1sb4y0ILhw0qYM4r1-144" value="" style="group;movable=1;resizable=1;rotatable=1;deletable=1;editable=1;locked=0;connectable=1;" vertex="1" connectable="0" parent="1">
          <mxGeometry x="1040.35" y="1432" width="42" height="90" as="geometry" />
        </mxCell>
        <mxCell id="_Kq1sb4y0ILhw0qYM4r1-140" value="&amp;nbsp;ALU" style="verticalLabelPosition=middle;verticalAlign=middle;html=1;shape=trapezoid;perimeter=trapezoidPerimeter;whiteSpace=wrap;size=0.23;arcSize=10;flipV=1;labelPosition=center;align=center;rotation=-90;movable=1;resizable=1;rotatable=1;deletable=1;editable=1;locked=0;connectable=1;" vertex="1" parent="_Kq1sb4y0ILhw0qYM4r1-144">
          <mxGeometry x="-21" y="21.90789473684211" width="84" height="43.81578947368422" as="geometry" />
        </mxCell>
        <mxCell id="_Kq1sb4y0ILhw0qYM4r1-183" value="" style="group" vertex="1" connectable="0" parent="_Kq1sb4y0ILhw0qYM4r1-144">
          <mxGeometry x="-1.1999999999999995" y="30.597157894736846" width="16.799999999999997" height="26.28947368421053" as="geometry" />
        </mxCell>
        <mxCell id="_Kq1sb4y0ILhw0qYM4r1-141" value="" style="triangle;whiteSpace=wrap;html=1;movable=1;resizable=1;rotatable=1;deletable=1;editable=1;locked=0;connectable=1;" vertex="1" parent="_Kq1sb4y0ILhw0qYM4r1-183">
          <mxGeometry width="16.799999999999997" height="26.28947368421053" as="geometry" />
        </mxCell>
        <mxCell id="_Kq1sb4y0ILhw0qYM4r1-142" value="" style="endArrow=none;html=1;rounded=0;entryX=0.645;entryY=1.002;entryDx=0;entryDy=0;entryPerimeter=0;exitX=0.353;exitY=1.001;exitDx=0;exitDy=0;exitPerimeter=0;strokeColor=#FFFFFF;strokeWidth=2;movable=1;resizable=1;rotatable=1;deletable=1;editable=1;locked=0;connectable=1;" edge="1" parent="_Kq1sb4y0ILhw0qYM4r1-183" source="_Kq1sb4y0ILhw0qYM4r1-140" target="_Kq1sb4y0ILhw0qYM4r1-140">
          <mxGeometry width="50" height="50" relative="1" as="geometry">
            <mxPoint x="26.4" y="57.03442105263159" as="sourcePoint" />
            <mxPoint x="68.39999999999999" y="13.218631578947374" as="targetPoint" />
          </mxGeometry>
        </mxCell>
        <mxCell id="_Kq1sb4y0ILhw0qYM4r1-146" value="" style="endArrow=classic;html=1;rounded=0;exitX=0.632;exitY=1.016;exitDx=0;exitDy=0;exitPerimeter=0;entryX=0.406;entryY=1.018;entryDx=0;entryDy=0;entryPerimeter=0;" edge="1" parent="1" source="_Kq1sb4y0ILhw0qYM4r1-136" target="_Kq1sb4y0ILhw0qYM4r1-137">
          <mxGeometry width="50" height="50" relative="1" as="geometry">
            <mxPoint x="780" y="1380" as="sourcePoint" />
            <mxPoint x="610" y="1190" as="targetPoint" />
          </mxGeometry>
        </mxCell>
        <mxCell id="_Kq1sb4y0ILhw0qYM4r1-147" value="address" style="edgeLabel;html=1;align=center;verticalAlign=middle;resizable=0;points=[];" vertex="1" connectable="0" parent="_Kq1sb4y0ILhw0qYM4r1-146">
          <mxGeometry x="-0.1803" y="-1" relative="1" as="geometry">
            <mxPoint x="7" y="-15" as="offset" />
          </mxGeometry>
        </mxCell>
        <mxCell id="_Kq1sb4y0ILhw0qYM4r1-153" value="" style="group" vertex="1" connectable="0" parent="1">
          <mxGeometry x="810" y="1180" height="330" as="geometry" />
        </mxCell>
        <mxCell id="_Kq1sb4y0ILhw0qYM4r1-148" value="" style="endArrow=classic;html=1;rounded=0;entryX=0.399;entryY=0.994;entryDx=0;entryDy=0;entryPerimeter=0;exitX=0.362;exitY=-0.001;exitDx=0;exitDy=0;exitPerimeter=0;" edge="1" parent="_Kq1sb4y0ILhw0qYM4r1-153" source="_Kq1sb4y0ILhw0qYM4r1-137" target="_Kq1sb4y0ILhw0qYM4r1-138">
          <mxGeometry width="50" height="50" relative="1" as="geometry">
            <mxPoint x="-90" y="9.705882352941176" as="sourcePoint" />
            <mxPoint x="-70" y="-9.705882352941176" as="targetPoint" />
          </mxGeometry>
        </mxCell>
        <mxCell id="_Kq1sb4y0ILhw0qYM4r1-149" value="Instruction" style="edgeLabel;html=1;align=center;verticalAlign=middle;resizable=0;points=[];" vertex="1" connectable="0" parent="_Kq1sb4y0ILhw0qYM4r1-148">
          <mxGeometry x="0.2863" y="-1" relative="1" as="geometry">
            <mxPoint x="-93" y="-12" as="offset" />
          </mxGeometry>
        </mxCell>
        <mxCell id="_Kq1sb4y0ILhw0qYM4r1-150" value="[31-26]" style="edgeLabel;html=1;align=center;verticalAlign=middle;resizable=0;points=[];" vertex="1" connectable="0" parent="_Kq1sb4y0ILhw0qYM4r1-148">
          <mxGeometry x="0.4741" relative="1" as="geometry">
            <mxPoint y="-14" as="offset" />
          </mxGeometry>
        </mxCell>
        <mxCell id="_Kq1sb4y0ILhw0qYM4r1-156" value="" style="shape=trapezoid;perimeter=trapezoidPerimeter;whiteSpace=wrap;html=1;fixedSize=1;rotation=90;size=8.75;" vertex="1" parent="1">
          <mxGeometry x="861.25" y="1490" width="47.5" height="10" as="geometry" />
        </mxCell>
        <mxCell id="_Kq1sb4y0ILhw0qYM4r1-162" value="" style="group;fillColor=none;" vertex="1" connectable="0" parent="1">
          <mxGeometry x="770" y="1180" width="219" height="330" as="geometry" />
        </mxCell>
        <mxCell id="_Kq1sb4y0ILhw0qYM4r1-154" value="" style="endArrow=classic;html=1;rounded=0;entryX=0.08;entryY=1.011;entryDx=0;entryDy=0;entryPerimeter=0;" edge="1" parent="_Kq1sb4y0ILhw0qYM4r1-162" target="_Kq1sb4y0ILhw0qYM4r1-139">
          <mxGeometry width="50" height="50" relative="1" as="geometry">
            <mxPoint x="1.0555923229648991" y="230" as="sourcePoint" />
            <mxPoint x="130" y="240" as="targetPoint" />
          </mxGeometry>
        </mxCell>
        <mxCell id="_Kq1sb4y0ILhw0qYM4r1-159" value="[25-21]" style="edgeLabel;html=1;align=center;verticalAlign=middle;resizable=0;points=[];" vertex="1" connectable="0" parent="_Kq1sb4y0ILhw0qYM4r1-154">
          <mxGeometry x="-0.0059" relative="1" as="geometry">
            <mxPoint x="-1" y="-10" as="offset" />
          </mxGeometry>
        </mxCell>
        <mxCell id="_Kq1sb4y0ILhw0qYM4r1-155" value="" style="endArrow=classic;html=1;rounded=0;entryX=0.165;entryY=1.001;entryDx=0;entryDy=0;entryPerimeter=0;" edge="1" parent="_Kq1sb4y0ILhw0qYM4r1-162">
          <mxGeometry width="50" height="50" relative="1" as="geometry">
            <mxPoint x="1.0555923229648991" y="269.8800000000001" as="sourcePoint" />
            <mxPoint x="145" y="269.8800000000001" as="targetPoint" />
          </mxGeometry>
        </mxCell>
        <mxCell id="_Kq1sb4y0ILhw0qYM4r1-160" value="[20-16]" style="edgeLabel;html=1;align=center;verticalAlign=middle;resizable=0;points=[];" vertex="1" connectable="0" parent="_Kq1sb4y0ILhw0qYM4r1-155">
          <mxGeometry x="-0.1136" y="2" relative="1" as="geometry">
            <mxPoint x="5" y="-8" as="offset" />
          </mxGeometry>
        </mxCell>
        <mxCell id="_Kq1sb4y0ILhw0qYM4r1-157" value="" style="endArrow=classic;html=1;rounded=0;entryX=0.811;entryY=1;entryDx=0;entryDy=0;entryPerimeter=0;" edge="1" parent="_Kq1sb4y0ILhw0qYM4r1-162" target="_Kq1sb4y0ILhw0qYM4r1-156">
          <mxGeometry width="50" height="50" relative="1" as="geometry">
            <mxPoint y="330" as="sourcePoint" />
            <mxPoint x="55.891557152311606" y="250" as="targetPoint" />
          </mxGeometry>
        </mxCell>
        <mxCell id="_Kq1sb4y0ILhw0qYM4r1-158" value="" style="endArrow=classic;html=1;rounded=0;entryX=0.183;entryY=1.021;entryDx=0;entryDy=0;entryPerimeter=0;" edge="1" parent="_Kq1sb4y0ILhw0qYM4r1-162" target="_Kq1sb4y0ILhw0qYM4r1-156">
          <mxGeometry width="50" height="50" relative="1" as="geometry">
            <mxPoint x="1.0555923229648991" y="300" as="sourcePoint" />
            <mxPoint x="110" y="300" as="targetPoint" />
          </mxGeometry>
        </mxCell>
        <mxCell id="_Kq1sb4y0ILhw0qYM4r1-161" value="[15-11]" style="edgeLabel;html=1;align=center;verticalAlign=middle;resizable=0;points=[];" vertex="1" connectable="0" parent="_Kq1sb4y0ILhw0qYM4r1-158">
          <mxGeometry x="-0.2198" y="1" relative="1" as="geometry">
            <mxPoint x="16" y="-9" as="offset" />
          </mxGeometry>
        </mxCell>
        <mxCell id="_Kq1sb4y0ILhw0qYM4r1-152" value="" style="endArrow=none;html=1;rounded=0;" edge="1" parent="_Kq1sb4y0ILhw0qYM4r1-162">
          <mxGeometry width="50" height="50" relative="1" as="geometry">
            <mxPoint y="330" as="sourcePoint" />
            <mxPoint as="targetPoint" />
          </mxGeometry>
        </mxCell>
        <mxCell id="_Kq1sb4y0ILhw0qYM4r1-175" value="&lt;font style=&quot;font-size: 6px;&quot;&gt;0&lt;/font&gt;" style="text;html=1;strokeColor=none;fillColor=none;align=center;verticalAlign=middle;whiteSpace=wrap;rounded=0;shadow=0;" vertex="1" parent="_Kq1sb4y0ILhw0qYM4r1-162">
          <mxGeometry x="83" y="283" width="60" height="30" as="geometry" />
        </mxCell>
        <mxCell id="_Kq1sb4y0ILhw0qYM4r1-173" value="&lt;font style=&quot;font-size: 10px;&quot;&gt;bSel&lt;/font&gt;" style="text;html=1;strokeColor=none;fillColor=none;align=center;verticalAlign=middle;whiteSpace=wrap;rounded=0;" vertex="1" parent="_Kq1sb4y0ILhw0qYM4r1-162">
          <mxGeometry x="129" y="287" width="60" height="30" as="geometry" />
        </mxCell>
        <mxCell id="_Kq1sb4y0ILhw0qYM4r1-181" value="isIm" style="text;html=1;strokeColor=none;fillColor=none;align=center;verticalAlign=middle;whiteSpace=wrap;rounded=0;" vertex="1" parent="_Kq1sb4y0ILhw0qYM4r1-162">
          <mxGeometry x="129" y="90" width="60" height="30" as="geometry" />
        </mxCell>
        <mxCell id="_Kq1sb4y0ILhw0qYM4r1-190" value="ALUopr" style="text;html=1;strokeColor=none;fillColor=none;align=center;verticalAlign=middle;whiteSpace=wrap;rounded=0;fontSize=8;" vertex="1" parent="_Kq1sb4y0ILhw0qYM4r1-162">
          <mxGeometry x="160" y="55" width="60" height="30" as="geometry" />
        </mxCell>
        <mxCell id="_Kq1sb4y0ILhw0qYM4r1-166" value="" style="endArrow=none;html=1;rounded=0;" edge="1" parent="1">
          <mxGeometry width="50" height="50" relative="1" as="geometry">
            <mxPoint x="780" y="1520" as="sourcePoint" />
            <mxPoint x="790" y="1500" as="targetPoint" />
          </mxGeometry>
        </mxCell>
        <mxCell id="_Kq1sb4y0ILhw0qYM4r1-167" value="16" style="edgeLabel;html=1;align=center;verticalAlign=middle;resizable=0;points=[];" vertex="1" connectable="0" parent="_Kq1sb4y0ILhw0qYM4r1-166">
          <mxGeometry x="0.3496" y="1" relative="1" as="geometry">
            <mxPoint x="4" y="-11" as="offset" />
          </mxGeometry>
        </mxCell>
        <mxCell id="_Kq1sb4y0ILhw0qYM4r1-169" value="&lt;font style=&quot;font-size: 5px;&quot;&gt;Extender&lt;/font&gt;" style="rounded=0;whiteSpace=wrap;html=1;verticalAlign=bottom;" vertex="1" parent="1">
          <mxGeometry x="810" y="1500" width="30" height="20" as="geometry" />
        </mxCell>
        <mxCell id="_Kq1sb4y0ILhw0qYM4r1-170" value="&lt;font style=&quot;font-size: 10px;&quot;&gt;writeSel&lt;/font&gt;" style="text;html=1;strokeColor=none;fillColor=none;align=center;verticalAlign=middle;whiteSpace=wrap;rounded=0;" vertex="1" parent="1">
          <mxGeometry x="908.75" y="1394" width="60" height="30" as="geometry" />
        </mxCell>
        <mxCell id="_Kq1sb4y0ILhw0qYM4r1-171" value="&lt;font style=&quot;font-size: 10px;&quot;&gt;aSel&lt;/font&gt;" style="text;html=1;strokeColor=none;fillColor=none;align=center;verticalAlign=middle;whiteSpace=wrap;rounded=0;" vertex="1" parent="1">
          <mxGeometry x="900" y="1433" width="60" height="30" as="geometry" />
        </mxCell>
        <mxCell id="_Kq1sb4y0ILhw0qYM4r1-174" value="" style="endArrow=classic;html=1;rounded=0;exitX=0.25;exitY=0;exitDx=0;exitDy=0;entryX=1.04;entryY=0.668;entryDx=0;entryDy=0;entryPerimeter=0;" edge="1" parent="1" source="_Kq1sb4y0ILhw0qYM4r1-156" target="_Kq1sb4y0ILhw0qYM4r1-175">
          <mxGeometry width="50" height="50" relative="1" as="geometry">
            <mxPoint x="880" y="1490" as="sourcePoint" />
            <mxPoint x="920" y="1480" as="targetPoint" />
          </mxGeometry>
        </mxCell>
        <mxCell id="_Kq1sb4y0ILhw0qYM4r1-176" value="&lt;font style=&quot;font-size: 6px;&quot;&gt;1&lt;/font&gt;" style="text;html=1;strokeColor=none;fillColor=none;align=center;verticalAlign=middle;whiteSpace=wrap;rounded=0;" vertex="1" parent="1">
          <mxGeometry x="853" y="1492" width="60" height="30" as="geometry" />
        </mxCell>
        <mxCell id="_Kq1sb4y0ILhw0qYM4r1-182" value="" style="endArrow=classic;html=1;rounded=0;exitX=0.765;exitY=0.01;exitDx=0;exitDy=0;entryX=1;entryY=0.5;entryDx=0;entryDy=0;exitPerimeter=0;fillColor=#dae8fc;strokeColor=#6c8ebf;" edge="1" parent="1" source="_Kq1sb4y0ILhw0qYM4r1-138" target="_Kq1sb4y0ILhw0qYM4r1-140">
          <mxGeometry width="50" height="50" relative="1" as="geometry">
            <mxPoint x="800" y="1480" as="sourcePoint" />
            <mxPoint x="850" y="1430" as="targetPoint" />
            <Array as="points">
              <mxPoint x="1060" y="1250" />
            </Array>
          </mxGeometry>
        </mxCell>
        <mxCell id="_Kq1sb4y0ILhw0qYM4r1-184" value="" style="endArrow=classic;html=1;rounded=0;entryX=0.805;entryY=1.014;entryDx=0;entryDy=0;entryPerimeter=0;exitX=0.238;exitY=-0.015;exitDx=0;exitDy=0;exitPerimeter=0;" edge="1" parent="1" source="_Kq1sb4y0ILhw0qYM4r1-139" target="_Kq1sb4y0ILhw0qYM4r1-140">
          <mxGeometry width="50" height="50" relative="1" as="geometry">
            <mxPoint x="940" y="1550" as="sourcePoint" />
            <mxPoint x="990" y="1500" as="targetPoint" />
          </mxGeometry>
        </mxCell>
        <mxCell id="_Kq1sb4y0ILhw0qYM4r1-185" value="" style="endArrow=classic;html=1;rounded=0;exitX=0.474;exitY=0.019;exitDx=0;exitDy=0;exitPerimeter=0;entryX=0.093;entryY=1.009;entryDx=0;entryDy=0;entryPerimeter=0;" edge="1" parent="1" source="_Kq1sb4y0ILhw0qYM4r1-139" target="_Kq1sb4y0ILhw0qYM4r1-140">
          <mxGeometry width="50" height="50" relative="1" as="geometry">
            <mxPoint x="985" y="1460" as="sourcePoint" />
            <mxPoint x="1049" y="1460" as="targetPoint" />
          </mxGeometry>
        </mxCell>
        <mxCell id="_Kq1sb4y0ILhw0qYM4r1-186" value="a" style="text;html=1;strokeColor=none;fillColor=none;align=center;verticalAlign=middle;whiteSpace=wrap;rounded=0;" vertex="1" parent="1">
          <mxGeometry x="940" y="1433" width="60" height="30" as="geometry" />
        </mxCell>
        <mxCell id="_Kq1sb4y0ILhw0qYM4r1-187" value="b" style="text;html=1;strokeColor=none;fillColor=none;align=center;verticalAlign=middle;whiteSpace=wrap;rounded=0;" vertex="1" parent="1">
          <mxGeometry x="939.25" y="1493" width="60" height="30" as="geometry" />
        </mxCell>
        <mxCell id="_Kq1sb4y0ILhw0qYM4r1-188" value="" style="endArrow=none;html=1;rounded=0;" edge="1" parent="1">
          <mxGeometry width="50" height="50" relative="1" as="geometry">
            <mxPoint x="853" y="1520" as="sourcePoint" />
            <mxPoint x="863" y="1500" as="targetPoint" />
          </mxGeometry>
        </mxCell>
        <mxCell id="_Kq1sb4y0ILhw0qYM4r1-189" value="32" style="edgeLabel;html=1;align=center;verticalAlign=middle;resizable=0;points=[];" vertex="1" connectable="0" parent="_Kq1sb4y0ILhw0qYM4r1-188">
          <mxGeometry x="0.3496" y="1" relative="1" as="geometry">
            <mxPoint x="4" y="-11" as="offset" />
          </mxGeometry>
        </mxCell>
        <mxCell id="_Kq1sb4y0ILhw0qYM4r1-193" value="" style="shape=trapezoid;perimeter=trapezoidPerimeter;whiteSpace=wrap;html=1;fixedSize=1;rotation=-90;size=8.75;" vertex="1" parent="1">
          <mxGeometry x="941.5" y="1020" width="47.5" height="10" as="geometry" />
        </mxCell>
        <mxCell id="_Kq1sb4y0ILhw0qYM4r1-194" value="" style="endArrow=classic;html=1;rounded=0;exitX=0.69;exitY=0.001;exitDx=0;exitDy=0;exitPerimeter=0;entryX=0.819;entryY=1.097;entryDx=0;entryDy=0;entryPerimeter=0;" edge="1" parent="1">
          <mxGeometry width="50" height="50" relative="1" as="geometry">
            <mxPoint x="1082.3540789473686" y="1459.8557894736841" as="sourcePoint" />
            <mxPoint x="970.3600000000001" y="1009.8474999999999" as="targetPoint" />
            <Array as="points">
              <mxPoint x="1160" y="1460" />
              <mxPoint x="1160" y="1010" />
            </Array>
          </mxGeometry>
        </mxCell>
        <mxCell id="_Kq1sb4y0ILhw0qYM4r1-195" value="" style="endArrow=classic;html=1;rounded=0;" edge="1" parent="1">
          <mxGeometry width="50" height="50" relative="1" as="geometry">
            <mxPoint x="1000" y="1040" as="sourcePoint" />
            <mxPoint x="970" y="1040" as="targetPoint" />
          </mxGeometry>
        </mxCell>
        <mxCell id="_Kq1sb4y0ILhw0qYM4r1-196" value="0" style="text;html=1;strokeColor=none;fillColor=none;align=center;verticalAlign=middle;whiteSpace=wrap;rounded=0;" vertex="1" parent="1">
          <mxGeometry x="975" y="1025" width="60" height="30" as="geometry" />
        </mxCell>
        <mxCell id="_Kq1sb4y0ILhw0qYM4r1-197" value="" style="endArrow=classic;html=1;rounded=0;exitX=-0.002;exitY=0.208;exitDx=0;exitDy=0;entryX=0;entryY=0.25;entryDx=0;entryDy=0;exitPerimeter=0;fillColor=#dae8fc;strokeColor=#6c8ebf;" edge="1" parent="1" source="_Kq1sb4y0ILhw0qYM4r1-138" target="_Kq1sb4y0ILhw0qYM4r1-193">
          <mxGeometry width="50" height="50" relative="1" as="geometry">
            <mxPoint x="860" y="1180" as="sourcePoint" />
            <mxPoint x="910" y="1130" as="targetPoint" />
          </mxGeometry>
        </mxCell>
        <mxCell id="_Kq1sb4y0ILhw0qYM4r1-198" value="Jump&lt;br&gt;Cond" style="edgeLabel;html=1;align=center;verticalAlign=middle;resizable=0;points=[];" vertex="1" connectable="0" parent="_Kq1sb4y0ILhw0qYM4r1-197">
          <mxGeometry x="-0.0093" y="-1" relative="1" as="geometry">
            <mxPoint x="-5" y="46" as="offset" />
          </mxGeometry>
        </mxCell>
        <mxCell id="_Kq1sb4y0ILhw0qYM4r1-199" value="1&lt;br style=&quot;font-size: 10px;&quot;&gt;&lt;br style=&quot;font-size: 10px;&quot;&gt;0" style="text;html=1;strokeColor=none;fillColor=none;align=center;verticalAlign=middle;whiteSpace=wrap;rounded=0;fontSize=10;" vertex="1" parent="1">
          <mxGeometry x="935.25" y="1010" width="60" height="30" as="geometry" />
        </mxCell>
        <mxCell id="_Kq1sb4y0ILhw0qYM4r1-200" value="" style="endArrow=classic;html=1;rounded=0;entryX=0.69;entryY=0.004;entryDx=0;entryDy=0;entryPerimeter=0;" edge="1" parent="1" target="_Kq1sb4y0ILhw0qYM4r1-136">
          <mxGeometry width="50" height="50" relative="1" as="geometry">
            <mxPoint x="960" y="1020" as="sourcePoint" />
            <mxPoint x="380" y="1020" as="targetPoint" />
            <Array as="points">
              <mxPoint x="360" y="1020" />
              <mxPoint x="360" y="1180" />
            </Array>
          </mxGeometry>
        </mxCell>
        <mxCell id="_Kq1sb4y0ILhw0qYM4r1-201" value="Jump" style="edgeLabel;html=1;align=center;verticalAlign=middle;resizable=0;points=[];" vertex="1" connectable="0" parent="_Kq1sb4y0ILhw0qYM4r1-200">
          <mxGeometry x="-0.0947" y="-3" relative="1" as="geometry">
            <mxPoint y="-7" as="offset" />
          </mxGeometry>
        </mxCell>
        <mxCell id="_Kq1sb4y0ILhw0qYM4r1-202" value="" style="endArrow=classic;html=1;rounded=0;exitX=0;exitY=0.75;exitDx=0;exitDy=0;entryX=0.861;entryY=-0.027;entryDx=0;entryDy=0;entryPerimeter=0;fillColor=#dae8fc;strokeColor=#6c8ebf;" edge="1" parent="1" source="_Kq1sb4y0ILhw0qYM4r1-138" target="_Kq1sb4y0ILhw0qYM4r1-136">
          <mxGeometry width="50" height="50" relative="1" as="geometry">
            <mxPoint x="630" y="1200" as="sourcePoint" />
            <mxPoint x="680" y="1150" as="targetPoint" />
            <Array as="points">
              <mxPoint x="930" y="1080" />
              <mxPoint x="400" y="1080" />
              <mxPoint x="400" y="1160" />
            </Array>
          </mxGeometry>
        </mxCell>
        <mxCell id="_Kq1sb4y0ILhw0qYM4r1-203" value="End" style="edgeLabel;html=1;align=center;verticalAlign=middle;resizable=0;points=[];" vertex="1" connectable="0" parent="_Kq1sb4y0ILhw0qYM4r1-202">
          <mxGeometry x="-0.1738" relative="1" as="geometry">
            <mxPoint x="243" y="32" as="offset" />
          </mxGeometry>
        </mxCell>
        <mxCell id="_Kq1sb4y0ILhw0qYM4r1-204" value="" style="endArrow=classic;html=1;rounded=0;entryX=0.519;entryY=-0.001;entryDx=0;entryDy=0;entryPerimeter=0;" edge="1" parent="1" target="_Kq1sb4y0ILhw0qYM4r1-136">
          <mxGeometry width="50" height="50" relative="1" as="geometry">
            <mxPoint x="240" y="1200" as="sourcePoint" />
            <mxPoint x="530" y="1210" as="targetPoint" />
          </mxGeometry>
        </mxCell>
        <mxCell id="_Kq1sb4y0ILhw0qYM4r1-206" value="Run" style="edgeLabel;html=1;align=center;verticalAlign=middle;resizable=0;points=[];" vertex="1" connectable="0" parent="_Kq1sb4y0ILhw0qYM4r1-204">
          <mxGeometry x="-0.4301" relative="1" as="geometry">
            <mxPoint y="-10" as="offset" />
          </mxGeometry>
        </mxCell>
        <mxCell id="_Kq1sb4y0ILhw0qYM4r1-205" value="" style="endArrow=none;html=1;rounded=0;" edge="1" parent="1">
          <mxGeometry width="50" height="50" relative="1" as="geometry">
            <mxPoint x="240" y="1210" as="sourcePoint" />
            <mxPoint x="250" y="1190" as="targetPoint" />
          </mxGeometry>
        </mxCell>
        <mxCell id="_Kq1sb4y0ILhw0qYM4r1-207" value="" style="endArrow=classic;html=1;rounded=0;entryX=0.106;entryY=-0.008;entryDx=0;entryDy=0;entryPerimeter=0;" edge="1" parent="1" target="_Kq1sb4y0ILhw0qYM4r1-136">
          <mxGeometry width="50" height="50" relative="1" as="geometry">
            <mxPoint x="770" y="1510" as="sourcePoint" />
            <mxPoint x="480" y="1340" as="targetPoint" />
            <Array as="points">
              <mxPoint x="360" y="1510" />
              <mxPoint x="360" y="1250" />
            </Array>
          </mxGeometry>
        </mxCell>
        <mxCell id="_Kq1sb4y0ILhw0qYM4r1-208" value="JumpAddress" style="edgeLabel;html=1;align=center;verticalAlign=middle;resizable=0;points=[];" vertex="1" connectable="0" parent="_Kq1sb4y0ILhw0qYM4r1-207">
          <mxGeometry x="-0.3225" y="-1" relative="1" as="geometry">
            <mxPoint x="16" y="-9" as="offset" />
          </mxGeometry>
        </mxCell>
        <mxCell id="_Kq1sb4y0ILhw0qYM4r1-209" value="Data Memory" style="rounded=0;whiteSpace=wrap;html=1;rotation=90;horizontal=0;verticalAlign=bottom;fontSize=9;" vertex="1" parent="1">
          <mxGeometry x="1290" y="1424" width="155" height="62.5" as="geometry" />
        </mxCell>
        <mxCell id="_Kq1sb4y0ILhw0qYM4r1-210" value="" style="endArrow=classic;html=1;rounded=0;entryX=0.878;entryY=1.001;entryDx=0;entryDy=0;entryPerimeter=0;" edge="1" parent="1" target="_Kq1sb4y0ILhw0qYM4r1-219">
          <mxGeometry width="50" height="50" relative="1" as="geometry">
            <mxPoint x="770" y="1321" as="sourcePoint" />
            <mxPoint x="1292.21" y="1520.4" as="targetPoint" />
            <Array as="points">
              <mxPoint x="1200" y="1321" />
              <mxPoint x="1200" y="1520" />
            </Array>
          </mxGeometry>
        </mxCell>
        <mxCell id="_Kq1sb4y0ILhw0qYM4r1-219" value="" style="shape=trapezoid;perimeter=trapezoidPerimeter;whiteSpace=wrap;html=1;fixedSize=1;rotation=90;size=8.75;" vertex="1" parent="1">
          <mxGeometry x="1258" y="1496.25" width="50" height="10" as="geometry" />
        </mxCell>
        <mxCell id="_Kq1sb4y0ILhw0qYM4r1-221" value="" style="endArrow=none;html=1;rounded=0;" edge="1" parent="1">
          <mxGeometry width="50" height="50" relative="1" as="geometry">
            <mxPoint x="1200" y="1530" as="sourcePoint" />
            <mxPoint x="1210" y="1510" as="targetPoint" />
          </mxGeometry>
        </mxCell>
        <mxCell id="_Kq1sb4y0ILhw0qYM4r1-222" value="16" style="edgeLabel;html=1;align=center;verticalAlign=middle;resizable=0;points=[];" vertex="1" connectable="0" parent="_Kq1sb4y0ILhw0qYM4r1-221">
          <mxGeometry x="0.3496" y="1" relative="1" as="geometry">
            <mxPoint x="4" y="-11" as="offset" />
          </mxGeometry>
        </mxCell>
        <mxCell id="_Kq1sb4y0ILhw0qYM4r1-223" value="&lt;font style=&quot;font-size: 5px;&quot;&gt;Extender&lt;/font&gt;" style="rounded=0;whiteSpace=wrap;html=1;verticalAlign=bottom;" vertex="1" parent="1">
          <mxGeometry x="1220" y="1510" width="30" height="20" as="geometry" />
        </mxCell>
        <mxCell id="_Kq1sb4y0ILhw0qYM4r1-225" value="" style="endArrow=none;html=1;rounded=0;" edge="1" parent="1">
          <mxGeometry width="50" height="50" relative="1" as="geometry">
            <mxPoint x="1258.75" y="1530" as="sourcePoint" />
            <mxPoint x="1268.75" y="1510" as="targetPoint" />
          </mxGeometry>
        </mxCell>
        <mxCell id="_Kq1sb4y0ILhw0qYM4r1-226" value="32" style="edgeLabel;html=1;align=center;verticalAlign=middle;resizable=0;points=[];" vertex="1" connectable="0" parent="_Kq1sb4y0ILhw0qYM4r1-225">
          <mxGeometry x="0.3496" y="1" relative="1" as="geometry">
            <mxPoint x="4" y="-11" as="offset" />
          </mxGeometry>
        </mxCell>
        <mxCell id="_Kq1sb4y0ILhw0qYM4r1-227" value="" style="endArrow=classic;html=1;rounded=0;entryX=0.275;entryY=1.02;entryDx=0;entryDy=0;entryPerimeter=0;" edge="1" parent="1" target="_Kq1sb4y0ILhw0qYM4r1-219">
          <mxGeometry width="50" height="50" relative="1" as="geometry">
            <mxPoint x="1200" y="1490" as="sourcePoint" />
            <mxPoint x="1210" y="1420" as="targetPoint" />
          </mxGeometry>
        </mxCell>
        <mxCell id="_Kq1sb4y0ILhw0qYM4r1-228" value="[20-16]" style="edgeLabel;html=1;align=center;verticalAlign=middle;resizable=0;points=[];" vertex="1" connectable="0" parent="_Kq1sb4y0ILhw0qYM4r1-227">
          <mxGeometry x="-0.2869" y="-1" relative="1" as="geometry">
            <mxPoint x="8" y="-13" as="offset" />
          </mxGeometry>
        </mxCell>
        <mxCell id="_Kq1sb4y0ILhw0qYM4r1-232" value="" style="group" vertex="1" connectable="0" parent="1">
          <mxGeometry x="885" y="1360" width="405" as="geometry" />
        </mxCell>
        <mxCell id="_Kq1sb4y0ILhw0qYM4r1-178" value="" style="endArrow=classic;html=1;rounded=0;exitX=1;exitY=0.75;exitDx=0;exitDy=0;entryX=0;entryY=0.5;entryDx=0;entryDy=0;fillColor=#dae8fc;strokeColor=#6c8ebf;" edge="1" parent="_Kq1sb4y0ILhw0qYM4r1-232" source="_Kq1sb4y0ILhw0qYM4r1-138" target="_Kq1sb4y0ILhw0qYM4r1-156">
          <mxGeometry width="50" height="50" relative="1" as="geometry">
            <mxPoint x="-113.87530562347187" y="10" as="sourcePoint" />
            <mxPoint x="4.951100244498777" y="90" as="targetPoint" />
            <Array as="points">
              <mxPoint x="44.559902200489" />
              <mxPoint />
            </Array>
          </mxGeometry>
        </mxCell>
        <mxCell id="_Kq1sb4y0ILhw0qYM4r1-231" value="" style="endArrow=classic;html=1;rounded=0;entryX=0;entryY=0.5;entryDx=0;entryDy=0;fillColor=#dae8fc;strokeColor=#6c8ebf;" edge="1" parent="_Kq1sb4y0ILhw0qYM4r1-232" target="_Kq1sb4y0ILhw0qYM4r1-219">
          <mxGeometry width="50" height="50" relative="1" as="geometry">
            <mxPoint x="44.559902200489" as="sourcePoint" />
            <mxPoint x="143.58190709046454" as="targetPoint" />
            <Array as="points">
              <mxPoint x="400" />
            </Array>
          </mxGeometry>
        </mxCell>
        <mxCell id="_Kq1sb4y0ILhw0qYM4r1-233" value="isIm" style="edgeLabel;html=1;align=center;verticalAlign=middle;resizable=0;points=[];" vertex="1" connectable="0" parent="_Kq1sb4y0ILhw0qYM4r1-231">
          <mxGeometry x="0.3286" relative="1" as="geometry">
            <mxPoint x="-2" y="-10" as="offset" />
          </mxGeometry>
        </mxCell>
        <mxCell id="_Kq1sb4y0ILhw0qYM4r1-234" value="" style="endArrow=classic;html=1;rounded=0;entryX=0.399;entryY=1.023;entryDx=0;entryDy=0;entryPerimeter=0;" edge="1" parent="1" target="_Kq1sb4y0ILhw0qYM4r1-209">
          <mxGeometry width="50" height="50" relative="1" as="geometry">
            <mxPoint x="1200" y="1440" as="sourcePoint" />
            <mxPoint x="1050" y="1400" as="targetPoint" />
          </mxGeometry>
        </mxCell>
        <mxCell id="_Kq1sb4y0ILhw0qYM4r1-235" value="[25-21]" style="edgeLabel;html=1;align=center;verticalAlign=middle;resizable=0;points=[];" vertex="1" connectable="0" parent="_Kq1sb4y0ILhw0qYM4r1-234">
          <mxGeometry x="-0.0451" relative="1" as="geometry">
            <mxPoint x="-24" y="-8" as="offset" />
          </mxGeometry>
        </mxCell>
        <mxCell id="_Kq1sb4y0ILhw0qYM4r1-449" value="address" style="edgeLabel;html=1;align=center;verticalAlign=middle;resizable=0;points=[];" vertex="1" connectable="0" parent="_Kq1sb4y0ILhw0qYM4r1-234">
          <mxGeometry x="0.5705" relative="1" as="geometry">
            <mxPoint x="54" as="offset" />
          </mxGeometry>
        </mxCell>
        <mxCell id="_Kq1sb4y0ILhw0qYM4r1-236" value="" style="endArrow=classic;html=1;rounded=0;exitX=0.61;exitY=0.008;exitDx=0;exitDy=0;exitPerimeter=0;entryX=0.001;entryY=0.785;entryDx=0;entryDy=0;entryPerimeter=0;fillColor=#dae8fc;strokeColor=#6c8ebf;" edge="1" parent="1" source="_Kq1sb4y0ILhw0qYM4r1-138" target="_Kq1sb4y0ILhw0qYM4r1-209">
          <mxGeometry width="50" height="50" relative="1" as="geometry">
            <mxPoint x="1110" y="1390" as="sourcePoint" />
            <mxPoint x="1160" y="1340" as="targetPoint" />
            <Array as="points">
              <mxPoint x="1350" y="1220" />
            </Array>
          </mxGeometry>
        </mxCell>
        <mxCell id="_Kq1sb4y0ILhw0qYM4r1-237" value="writeEnable" style="text;html=1;strokeColor=none;fillColor=none;align=center;verticalAlign=middle;whiteSpace=wrap;rounded=0;fontSize=8;" vertex="1" parent="1">
          <mxGeometry x="923" y="1206" width="60" height="30" as="geometry" />
        </mxCell>
        <mxCell id="_Kq1sb4y0ILhw0qYM4r1-239" value="" style="shape=trapezoid;perimeter=trapezoidPerimeter;whiteSpace=wrap;html=1;fixedSize=1;rotation=90;size=8.75;" vertex="1" parent="1">
          <mxGeometry x="858.75" y="1559.75" width="50" height="10" as="geometry" />
        </mxCell>
        <mxCell id="_Kq1sb4y0ILhw0qYM4r1-229" value="&lt;font size=&quot;1&quot;&gt;0&lt;br&gt;&lt;br&gt;1&lt;br&gt;&lt;/font&gt;" style="text;html=1;strokeColor=none;fillColor=none;align=center;verticalAlign=middle;whiteSpace=wrap;rounded=0;" vertex="1" parent="1">
          <mxGeometry x="853" y="1549.75" width="60" height="30" as="geometry" />
        </mxCell>
        <mxCell id="_Kq1sb4y0ILhw0qYM4r1-240" value="" style="endArrow=classic;html=1;rounded=0;entryX=0.221;entryY=1.019;entryDx=0;entryDy=0;entryPerimeter=0;" edge="1" parent="1" target="_Kq1sb4y0ILhw0qYM4r1-239">
          <mxGeometry width="50" height="50" relative="1" as="geometry">
            <mxPoint x="850" y="1510" as="sourcePoint" />
            <mxPoint x="1030" y="1420" as="targetPoint" />
            <Array as="points">
              <mxPoint x="850" y="1550" />
            </Array>
          </mxGeometry>
        </mxCell>
        <mxCell id="_Kq1sb4y0ILhw0qYM4r1-241" value="" style="endArrow=none;html=1;rounded=0;" edge="1" parent="1">
          <mxGeometry width="50" height="50" relative="1" as="geometry">
            <mxPoint x="850" y="1559.75" as="sourcePoint" />
            <mxPoint x="860" y="1539.75" as="targetPoint" />
          </mxGeometry>
        </mxCell>
        <mxCell id="_Kq1sb4y0ILhw0qYM4r1-242" value="32" style="edgeLabel;html=1;align=center;verticalAlign=middle;resizable=0;points=[];" vertex="1" connectable="0" parent="_Kq1sb4y0ILhw0qYM4r1-241">
          <mxGeometry x="0.3496" y="1" relative="1" as="geometry">
            <mxPoint x="4" y="-11" as="offset" />
          </mxGeometry>
        </mxCell>
        <mxCell id="_Kq1sb4y0ILhw0qYM4r1-243" value="" style="endArrow=classic;html=1;rounded=0;entryX=0;entryY=0.5;entryDx=0;entryDy=0;fillColor=#dae8fc;strokeColor=#6c8ebf;" edge="1" parent="1" target="_Kq1sb4y0ILhw0qYM4r1-239">
          <mxGeometry width="50" height="50" relative="1" as="geometry">
            <mxPoint x="885" y="1460" as="sourcePoint" />
            <mxPoint x="900" y="1540" as="targetPoint" />
            <Array as="points">
              <mxPoint x="900" y="1460" />
              <mxPoint x="900" y="1530" />
              <mxPoint x="884" y="1530" />
            </Array>
          </mxGeometry>
        </mxCell>
        <mxCell id="_Kq1sb4y0ILhw0qYM4r1-244" value="" style="endArrow=classic;html=1;rounded=0;exitX=0.652;exitY=-0.007;exitDx=0;exitDy=0;exitPerimeter=0;entryX=0.798;entryY=1.011;entryDx=0;entryDy=0;entryPerimeter=0;" edge="1" parent="1" source="_Kq1sb4y0ILhw0qYM4r1-209" target="_Kq1sb4y0ILhw0qYM4r1-239">
          <mxGeometry width="50" height="50" relative="1" as="geometry">
            <mxPoint x="1010" y="1500" as="sourcePoint" />
            <mxPoint x="1440" y="1479" as="targetPoint" />
            <Array as="points">
              <mxPoint x="1440" y="1479" />
              <mxPoint x="1440" y="1680" />
              <mxPoint x="840" y="1680" />
              <mxPoint x="840" y="1580" />
            </Array>
          </mxGeometry>
        </mxCell>
        <mxCell id="_Kq1sb4y0ILhw0qYM4r1-559" value="ReadData" style="edgeLabel;html=1;align=center;verticalAlign=middle;resizable=0;points=[];" vertex="1" connectable="0" parent="_Kq1sb4y0ILhw0qYM4r1-244">
          <mxGeometry x="-0.8478" y="-2" relative="1" as="geometry">
            <mxPoint y="-46" as="offset" />
          </mxGeometry>
        </mxCell>
        <mxCell id="_Kq1sb4y0ILhw0qYM4r1-245" value="" style="endArrow=classic;html=1;rounded=0;exitX=0.405;exitY=0;exitDx=0;exitDy=0;entryX=0.674;entryY=0.993;entryDx=0;entryDy=0;entryPerimeter=0;exitPerimeter=0;" edge="1" parent="1" source="_Kq1sb4y0ILhw0qYM4r1-239" target="_Kq1sb4y0ILhw0qYM4r1-139">
          <mxGeometry width="50" height="50" relative="1" as="geometry">
            <mxPoint x="950" y="1490" as="sourcePoint" />
            <mxPoint x="1000" y="1440" as="targetPoint" />
          </mxGeometry>
        </mxCell>
        <mxCell id="_Kq1sb4y0ILhw0qYM4r1-246" value="&lt;font style=&quot;font-size: 10px;&quot;&gt;writeData&lt;/font&gt;" style="text;html=1;strokeColor=none;fillColor=none;align=center;verticalAlign=middle;whiteSpace=wrap;rounded=0;" vertex="1" parent="1">
          <mxGeometry x="909" y="1544" width="60" height="30" as="geometry" />
        </mxCell>
        <mxCell id="_Kq1sb4y0ILhw0qYM4r1-249" value="" style="endArrow=classic;html=1;rounded=0;entryX=0.912;entryY=1.001;entryDx=0;entryDy=0;entryPerimeter=0;fillColor=#dae8fc;strokeColor=#6c8ebf;" edge="1" parent="1" target="_Kq1sb4y0ILhw0qYM4r1-139">
          <mxGeometry width="50" height="50" relative="1" as="geometry">
            <mxPoint x="1120" y="1220" as="sourcePoint" />
            <mxPoint x="1040" y="1540" as="targetPoint" />
            <Array as="points">
              <mxPoint x="1120" y="1660" />
              <mxPoint x="890" y="1660" />
              <mxPoint x="890" y="1620" />
            </Array>
          </mxGeometry>
        </mxCell>
        <mxCell id="_Kq1sb4y0ILhw0qYM4r1-250" value="&lt;font style=&quot;font-size: 9px;&quot;&gt;WriteEnable&lt;/font&gt;" style="edgeLabel;html=1;align=center;verticalAlign=middle;resizable=0;points=[];" vertex="1" connectable="0" parent="_Kq1sb4y0ILhw0qYM4r1-249">
          <mxGeometry x="0.4166" relative="1" as="geometry">
            <mxPoint x="-99" y="-40" as="offset" />
          </mxGeometry>
        </mxCell>
        <mxCell id="_Kq1sb4y0ILhw0qYM4r1-443" value="&lt;font size=&quot;1&quot;&gt;0&lt;br&gt;&lt;br&gt;1&lt;br&gt;&lt;/font&gt;" style="text;html=1;strokeColor=none;fillColor=none;align=center;verticalAlign=middle;whiteSpace=wrap;rounded=0;" vertex="1" parent="1">
          <mxGeometry x="1253" y="1485" width="60" height="30" as="geometry" />
        </mxCell>
        <mxCell id="_Kq1sb4y0ILhw0qYM4r1-444" value="" style="shape=trapezoid;perimeter=trapezoidPerimeter;whiteSpace=wrap;html=1;fixedSize=1;rotation=90;size=8.75;" vertex="1" parent="1">
          <mxGeometry x="1285" y="1515" width="50" height="10" as="geometry" />
        </mxCell>
        <mxCell id="_Kq1sb4y0ILhw0qYM4r1-445" value="" style="endArrow=classic;html=1;rounded=0;exitX=0.67;exitY=-0.015;exitDx=0;exitDy=0;exitPerimeter=0;entryX=0.301;entryY=1.055;entryDx=0;entryDy=0;entryPerimeter=0;" edge="1" parent="1" source="_Kq1sb4y0ILhw0qYM4r1-219" target="_Kq1sb4y0ILhw0qYM4r1-444">
          <mxGeometry width="50" height="50" relative="1" as="geometry">
            <mxPoint x="1220" y="1500" as="sourcePoint" />
            <mxPoint x="1270" y="1450" as="targetPoint" />
          </mxGeometry>
        </mxCell>
        <mxCell id="_Kq1sb4y0ILhw0qYM4r1-446" value="" style="endArrow=classic;html=1;rounded=0;exitX=0.331;exitY=-0.001;exitDx=0;exitDy=0;exitPerimeter=0;entryX=0.906;entryY=1.057;entryDx=0;entryDy=0;entryPerimeter=0;" edge="1" parent="1" source="_Kq1sb4y0ILhw0qYM4r1-140" target="_Kq1sb4y0ILhw0qYM4r1-444">
          <mxGeometry width="50" height="50" relative="1" as="geometry">
            <mxPoint x="1210" y="1430" as="sourcePoint" />
            <mxPoint x="1260" y="1380" as="targetPoint" />
            <Array as="points">
              <mxPoint x="1110" y="1490" />
              <mxPoint x="1110" y="1540" />
            </Array>
          </mxGeometry>
        </mxCell>
        <mxCell id="_Kq1sb4y0ILhw0qYM4r1-447" value="result" style="edgeLabel;html=1;align=center;verticalAlign=middle;resizable=0;points=[];" vertex="1" connectable="0" parent="_Kq1sb4y0ILhw0qYM4r1-446">
          <mxGeometry x="-0.1128" relative="1" as="geometry">
            <mxPoint y="-9" as="offset" />
          </mxGeometry>
        </mxCell>
        <mxCell id="_Kq1sb4y0ILhw0qYM4r1-448" value="&lt;font size=&quot;1&quot;&gt;0&lt;br&gt;&lt;br&gt;1&lt;br&gt;&lt;/font&gt;" style="text;html=1;strokeColor=none;fillColor=none;align=center;verticalAlign=middle;whiteSpace=wrap;rounded=0;" vertex="1" parent="1">
          <mxGeometry x="1280" y="1505" width="60" height="30" as="geometry" />
        </mxCell>
        <mxCell id="_Kq1sb4y0ILhw0qYM4r1-450" value="" style="endArrow=classic;html=1;rounded=0;exitX=0.29;exitY=-0.048;exitDx=0;exitDy=0;entryX=0.85;entryY=0.999;entryDx=0;entryDy=0;entryPerimeter=0;exitPerimeter=0;" edge="1" parent="1" source="_Kq1sb4y0ILhw0qYM4r1-444" target="_Kq1sb4y0ILhw0qYM4r1-209">
          <mxGeometry width="50" height="50" relative="1" as="geometry">
            <mxPoint x="1100" y="1470" as="sourcePoint" />
            <mxPoint x="1150" y="1420" as="targetPoint" />
          </mxGeometry>
        </mxCell>
        <mxCell id="_Kq1sb4y0ILhw0qYM4r1-451" value="" style="endArrow=classic;html=1;rounded=0;exitX=0.713;exitY=-0.003;exitDx=0;exitDy=0;exitPerimeter=0;entryX=0;entryY=0.5;entryDx=0;entryDy=0;fillColor=#dae8fc;strokeColor=#6c8ebf;" edge="1" parent="1" source="_Kq1sb4y0ILhw0qYM4r1-138" target="_Kq1sb4y0ILhw0qYM4r1-444">
          <mxGeometry width="50" height="50" relative="1" as="geometry">
            <mxPoint x="1050" y="1450" as="sourcePoint" />
            <mxPoint x="1310" y="1460" as="targetPoint" />
            <Array as="points">
              <mxPoint x="1310" y="1240" />
            </Array>
          </mxGeometry>
        </mxCell>
        <mxCell id="_Kq1sb4y0ILhw0qYM4r1-452" value="&lt;font style=&quot;font-size: 9px;&quot;&gt;storeMemory&lt;/font&gt;" style="text;html=1;strokeColor=none;fillColor=none;align=center;verticalAlign=middle;whiteSpace=wrap;rounded=0;" vertex="1" parent="1">
          <mxGeometry x="918" y="1222" width="60" height="30" as="geometry" />
        </mxCell>
        <mxCell id="_Kq1sb4y0ILhw0qYM4r1-558" value="writeEnable" style="text;html=1;strokeColor=none;fillColor=none;align=center;verticalAlign=middle;whiteSpace=wrap;rounded=0;fontSize=8;" vertex="1" parent="1">
          <mxGeometry x="1335" y="1370.15" width="60" height="30" as="geometry" />
        </mxCell>
        <mxCell id="_Kq1sb4y0ILhw0qYM4r1-560" value="&lt;font style=&quot;font-size: 9px;&quot;&gt;DataWrite&lt;/font&gt;" style="text;html=1;strokeColor=none;fillColor=none;align=center;verticalAlign=middle;whiteSpace=wrap;rounded=0;" vertex="1" parent="1">
          <mxGeometry x="1329" y="1493" width="60" height="30" as="geometry" />
        </mxCell>
      </root>
    </mxGraphModel>
  </diagram>
</mxfile>
